<svg id="圖層_1" data-name="圖層 1" xmlns="http://www.w3.org/2000/svg" viewBox="0 0 333.94 264.94"><defs><style>.cls-1{fill:#b7002c;}.cls-2{fill:#fff;}.cls-3{fill:#120842;}</style></defs><title>1222</title><circle class="cls-1" cx="162.5" cy="120.5" r="120.5"/><path class="cls-2" d="M113.49,128.12c4.81-7.44,9.4-15,14.49-22.28a194,194,0,0,1,35.59-38c3.34-2.75,1.28-9.93-3.68-13.48-7.3-5.21-15.48-6.32-24.14-5.06-5.3.77-9-2.12-9.31-7.37-.23-4.24.86-6.59,6.1-7A66.87,66.87,0,0,1,168.89,42C175,45,179.43,49.29,179.63,56.41c.3,11.09.23,22.18.23,33.27,0,19.56-.1,39.12-.09,58.68,0,9.14.26,18.29.21,27.43,0,2.78-.23,6.57-3.93,6.18-1.68-.18-4-3.66-4.34-5.89-3.92-27.22-6.21-54.56-5-82.11a50.82,50.82,0,0,0,0-6.87,20.77,20.77,0,0,0-1.36-4.25c-1.42.55-3.2.72-4.19,1.69-8.16,8-16.28,16-24.2,24.25-5.74,5.94-11.1,12.26-16.79,18.25-1.26,1.33-3.21,2-4.84,3Z"/><path class="cls-2" d="M59.2,203.78l51.41-49.59a8.68,8.68,0,0,1,7.87-2.19L158,160.66a9,9,0,0,0,3.14.11l36.66-5.3a8.71,8.71,0,0,1,5.94,1.27L259,198l66.24,53.22c6.64,4.65,4,12.78-4.24,12.78L32.85,254c-7.24,0-11.14-8.2-6.42-13.5l32.33-36.27Z"/><path class="cls-3" d="M63.28,200c2.23-2.68,2.29-.15,3.53,3.19l5.22,14A4.43,4.43,0,0,0,77.65,220l56.48-20.19a5.49,5.49,0,0,1,4.28.25L175,218.25a5.48,5.48,0,0,0,4.5.19l36-14.48a5.46,5.46,0,0,1,4.44.16l19.21,9.39a4.36,4.36,0,0,0,5.72-1.87l5.3-13.2a2,2,0,0,1,.1-.21c1.34-2.19,4.79-3.54,6.88-2.21l74.39,60.26c3.77,2.4,2.48,9-1.9,9C271,265,10.11,266,3,265c-2.8-.39-3.8-6.38-2.35-9l2.09-3.74a1.88,1.88,0,0,1,.16-.23C12.34,241.72,63.28,200,63.28,200Z"/><circle class="cls-2" cx="240.8" cy="43.58" r="13.58"/><circle class="cls-2" cx="254.97" cy="45.35" r="11.81"/><ellipse class="cls-2" cx="247" cy="51.85" rx="31" ry="8.27"/><ellipse class="cls-2" cx="265.01" cy="47.71" rx="12.99" ry="9.45"/><ellipse class="cls-2" cx="232.01" cy="46.71" rx="12.99" ry="9.45"/><circle class="cls-2" cx="46.8" cy="132.58" r="13.58"/><circle class="cls-2" cx="60.97" cy="134.35" r="11.81"/><ellipse class="cls-2" cx="53" cy="140.85" rx="31" ry="8.27"/><ellipse class="cls-2" cx="71.01" cy="136.71" rx="12.99" ry="9.45"/><ellipse class="cls-2" cx="38.01" cy="135.71" rx="12.99" ry="9.45"/></svg>